<?xml version="1.0" encoding="utf-8"?>
<!-- Generator: Adobe Illustrator 26.3.1, SVG Export Plug-In . SVG Version: 6.00 Build 0)  -->
<svg version="1.1" id="Layer_1" xmlns="http://www.w3.org/2000/svg" xmlns:xlink="http://www.w3.org/1999/xlink" x="0px" y="0px"
	 viewBox="0 0 48.2 48.2" style="enable-background:new 0 0 48.2 48.2;" xml:space="preserve">
<style type="text/css">
	.st0{fill:none;}
	.st1{fill:#84272A;}
</style>
<g>
	<path id="Path_1422" class="st0" d="M0.1,0.1v48h48v-48H0.1z M45.1,45.1h-42v-42h42V45.1z"/>
	<g id="Group_14322" transform="translate(6.84 5.25)">
		<rect x="0.1" y="1.9" class="st1" width="34.3" height="1"/>
		<path class="st1" d="M4.5,38.7c-1.1,0-1.9-0.9-1.9-2V2.4h1v34.3c0,0.5,0.4,1,0.9,1h25.6c0.5,0,0.9-0.5,0.9-1V2.4h1v34.3
			c0,1.1-0.8,2-1.9,2H4.5z"/>
		<rect x="9.8" y="-1" class="st1" width="15" height="1"/>
		<rect x="11.6" y="9.2" class="st1" width="1" height="19.5"/>
		<rect x="22" y="9.2" class="st1" width="1" height="19.5"/>
	</g>
</g>
</svg>
